<svg width="255" height="255" viewBox="0 0 255 255" fill="none" xmlns="http://www.w3.org/2000/svg">
<g filter="url(#filter0_i_5_2)">
<g clip-path="url(#clip0_5_2)">
<rect width="255" height="255" rx="50" fill="#AF3E3E"/>
<path d="M43.0906 27.7405L51.2733 32.9156L50.2185 70.8102L50.91 71.2476L84.6956 54.0531L92.8783 59.2281L49.6179 80.4339L34.2385 104.751L27.0931 100.232L42.4724 75.9148L43.0906 27.7405ZM75.5918 132.196C71.3275 129.499 68.2444 126.231 66.3424 122.393C64.4717 118.548 63.7759 114.397 64.255 109.94C64.7655 105.476 66.4541 100.978 69.3211 96.4445C72.188 91.9114 75.5407 88.4384 79.3793 86.0257C83.2492 83.6059 87.2862 82.3674 91.4905 82.3103C95.726 82.2462 99.8415 83.4775 103.837 86.0043C106.142 87.4621 108.175 89.2858 109.936 91.4754C111.698 93.665 112.954 96.2073 113.705 99.1023C114.467 101.978 114.503 105.174 113.812 108.69C113.122 112.206 111.47 116.029 108.858 120.159L107.036 123.04L72.9224 101.465L76.6397 95.5873L103.839 112.789C105.418 110.292 106.328 107.748 106.568 105.157C106.827 102.578 106.403 100.145 105.295 97.8577C104.206 95.5825 102.432 93.6674 99.9737 92.1125C97.2654 90.3996 94.4968 89.5899 91.668 89.6832C88.8705 89.7695 86.2694 90.5446 83.8645 92.0086C81.4596 93.4725 79.4858 95.4242 77.943 97.8637L75.4648 101.782C73.351 105.124 72.1354 108.322 71.818 111.375C71.532 114.421 72.0435 117.205 73.3527 119.727C74.674 122.23 76.708 124.35 79.4548 126.087C81.2412 127.217 83.0126 127.988 84.7691 128.4C86.5569 128.804 88.3009 128.832 90.0012 128.482C91.7137 128.113 93.3439 127.342 94.892 126.17L100.295 132.168C98.1944 133.959 95.7932 135.183 93.0914 135.841C90.4019 136.48 87.5589 136.51 84.5627 135.933C81.5785 135.336 78.5882 134.091 75.5918 132.196ZM157.912 134.886L150.71 132.751C150.97 131.49 151.029 130.143 150.887 128.709C150.777 127.267 150.288 125.829 149.421 124.393C148.554 122.958 147.132 121.614 145.153 120.363C142.445 118.65 139.793 117.847 137.198 117.954C134.634 118.053 132.751 119.054 131.548 120.955C130.479 122.646 130.249 124.369 130.859 126.126C131.469 127.884 132.874 129.915 135.073 132.22L140.622 137.988C143.971 141.451 145.99 144.785 146.679 147.99C147.38 151.177 146.752 154.316 144.797 157.409C143.193 159.944 141.03 161.749 138.307 162.823C135.603 163.91 132.59 164.209 129.268 163.722C125.946 163.234 122.565 161.903 119.127 159.729C114.613 156.874 111.497 153.532 109.778 149.702C108.059 145.872 107.996 141.825 109.59 137.562L117.064 140.031C116.172 142.801 116.205 145.323 117.161 147.595C118.137 149.879 120.017 151.902 122.802 153.663C125.971 155.668 128.913 156.587 131.626 156.42C134.371 156.247 136.345 155.21 137.548 153.308C138.52 151.771 138.796 150.144 138.376 148.427C137.969 146.69 136.815 144.858 134.915 142.93L128.632 136.536C125.186 133.013 123.151 129.641 122.524 126.422C121.93 123.195 122.598 120.055 124.53 117.001C126.109 114.504 128.207 112.738 130.824 111.704C133.46 110.682 136.344 110.395 139.476 110.843C142.627 111.303 145.759 112.517 148.87 114.485C153.25 117.255 156.081 120.39 157.363 123.89C158.665 127.402 158.847 131.067 157.912 134.886Z" fill="black"/>
<path d="M165.459 134.221L193.701 198.073L186.219 201.382L129.251 166.639L128.627 166.914L150.801 217.048L143.069 220.468L114.827 156.616L122.31 153.307L179.458 188.12L180.082 187.844L157.852 137.586L165.459 134.221ZM207.82 134.57L210.578 140.806L185.761 151.783L183.003 145.547L207.82 134.57ZM185.162 130.875L192.52 127.62L212.708 173.264C213.627 175.342 214.618 176.768 215.681 177.541C216.755 178.283 217.848 178.62 218.96 178.55C220.084 178.451 221.187 178.162 222.268 177.684C223.078 177.325 223.725 176.99 224.208 176.677C224.681 176.343 225.06 176.076 225.344 175.876L229.764 181.823C229.348 182.231 228.735 182.726 227.924 183.308C227.122 183.912 226.035 184.517 224.663 185.123C222.585 186.043 220.35 186.497 217.96 186.486C215.59 186.465 213.346 185.83 211.227 184.58C209.129 183.321 207.465 181.299 206.233 178.514L185.162 130.875Z" fill="black"/>
<path d="M149.184 114.691C153.345 117.604 157.076 118.159 162.062 127.151L165.478 134.268L158.942 140.061C158.499 138.814 157.998 138.531 156.782 138.555C148.463 138.492 149.176 133.091 152.758 128.979L154.925 127.609L149.184 114.691Z" fill="black"/>
</g>
</g>
<defs>
<filter id="filter0_i_5_2" x="0" y="0" width="255" height="255" filterUnits="userSpaceOnUse" color-interpolation-filters="sRGB">
<feFlood flood-opacity="0" result="BackgroundImageFix"/>
<feBlend mode="normal" in="SourceGraphic" in2="BackgroundImageFix" result="shape"/>
<feColorMatrix in="SourceAlpha" type="matrix" values="0 0 0 0 0 0 0 0 0 0 0 0 0 0 0 0 0 0 127 0" result="hardAlpha"/>
<feMorphology radius="19" operator="erode" in="SourceAlpha" result="effect1_innerShadow_5_2"/>
<feOffset/>
<feGaussianBlur stdDeviation="2"/>
<feComposite in2="hardAlpha" operator="arithmetic" k2="-1" k3="1"/>
<feColorMatrix type="matrix" values="0 0 0 0 0 0 0 0 0 0 0 0 0 0 0 0 0 0 0.25 0"/>
<feBlend mode="normal" in2="shape" result="effect1_innerShadow_5_2"/>
</filter>
<clipPath id="clip0_5_2">
<rect width="255" height="255" rx="50" fill="white"/>
</clipPath>
</defs>
</svg>
